<?xml version="1.0" encoding="UTF-8" standalone="no"?>
<!DOCTYPE svg PUBLIC "-//W3C//DTD SVG 1.1//EN" "http://www.w3.org/Graphics/SVG/1.1/DTD/svg11.dtd">
<svg version="1.1" xmlns="http://www.w3.org/2000/svg" xmlns:xlink="http://www.w3.org/1999/xlink" preserveAspectRatio="xMidYMid meet" viewBox="0 0 640 640" width="640" height="640"><defs><path d="M72.12 271.06C72.12 390.74 184.04 487.76 322.1 487.76C460.17 487.76 572.09 390.74 572.09 271.06C572.09 151.38 460.17 54.37 322.1 54.37C184.04 54.37 72.12 151.38 72.12 271.06Z" id="g1nNx3gE7c"></path><path d="M72.12 271.06C72.12 390.74 184.04 487.76 322.1 487.76C460.17 487.76 572.09 390.74 572.09 271.06C572.09 151.38 460.17 54.37 322.1 54.37C184.04 54.37 72.12 151.38 72.12 271.06Z" id="b14y3kJOKN"></path><path d="M429.51 137.83C429.51 136.64 428.25 135.63 426.69 135.63C423.31 135.63 396.36 135.63 393 135.63C391.44 135.63 390.16 136.64 390.16 137.83C390.16 138.16 390.16 139.79 390.16 142.74C390.75 143.09 393.72 144.84 399.05 147.99L390.16 147.99L390.16 161.28C385.24 157.06 382.51 154.72 381.97 154.25C285.41 154.25 231.77 154.25 221.03 154.25C208.83 154.25 198.97 162.8 198.97 173.39C198.97 182.13 198.97 225.93 198.97 304.75C199.56 305.07 202.52 306.65 207.85 309.49L194.38 309.49L194.38 371.79L203.27 376.53C200.63 376.53 199.17 376.53 198.87 376.53C198.87 383.03 198.87 386.65 198.87 387.37C198.87 393.63 202.39 399.22 207.76 402.69C208.64 403.7 268.49 455.68 305.01 487.25C310.68 487.59 316.35 487.76 322 487.76C460.18 487.76 572.09 390.75 572.09 271.06C572.09 268.27 571.99 265.56 571.89 262.76C557.65 250.27 443.75 150.33 429.51 137.83Z" id="cpevEnoNx"></path><path d="M429.51 137.83C429.51 136.64 428.25 135.63 426.69 135.63C423.31 135.63 396.36 135.63 393 135.63C391.44 135.63 390.16 136.64 390.16 137.83C390.16 138.16 390.16 139.79 390.16 142.74C390.75 143.09 393.72 144.84 399.05 147.99L390.16 147.99L390.16 161.28C385.24 157.06 382.51 154.72 381.97 154.25C285.41 154.25 231.77 154.25 221.03 154.25C208.83 154.25 198.97 162.8 198.97 173.39C198.97 182.13 198.97 225.93 198.97 304.75C199.56 305.07 202.52 306.65 207.85 309.49L194.38 309.49L194.38 371.79L203.27 376.53C200.63 376.53 199.17 376.53 198.87 376.53C198.87 383.03 198.87 386.65 198.87 387.37C198.87 393.63 202.39 399.22 207.76 402.69C208.64 403.7 268.49 455.68 305.01 487.25C310.68 487.59 316.35 487.76 322 487.76C460.18 487.76 572.09 390.75 572.09 271.06C572.09 268.27 571.99 265.56 571.89 262.76C557.65 250.27 443.75 150.33 429.51 137.83Z" id="a4EZm2aX9m"></path><path d="M364.19 371.79L194.38 371.79L194.38 309.49L364.19 309.49L323.18 340.64L364.19 371.79ZM279.19 325.76L278.57 325.78L278.27 325.8L277.38 325.88L277.09 325.92L276.82 325.96L276.53 326.01L276.26 326.06L275.99 326.12L275.72 326.18L275.45 326.25L274.94 326.39L274.68 326.47L274.44 326.55L274.19 326.64L273.95 326.72L273.71 326.82L273.48 326.92L273.24 327.03L273.01 327.14L272.79 327.26L272.35 327.49L272.14 327.62L271.93 327.75L271.72 327.89L271.52 328.03L271.13 328.32L270.94 328.47L270.76 328.62L270.59 328.77L270.43 328.93L270.11 329.24L269.96 329.4L269.82 329.56L269.69 329.73L269.43 330.06L269.1 330.6L269 330.77L268.92 330.95L268.83 331.14L268.75 331.33L268.68 331.51L268.61 331.71L268.55 331.9L268.5 332.11L268.45 332.3L268.41 332.5L268.37 332.71L268.35 332.93L268.32 333.13L268.29 333.78L268.3 334L268.32 334.42L268.34 334.62L268.4 335.02L268.44 335.22L268.48 335.4L268.53 335.6L268.58 335.79L268.64 335.97L268.71 336.15L268.78 336.33L268.86 336.51L268.95 336.68L269.03 336.86L269.12 337.02L269.22 337.19L269.33 337.36L269.44 337.52L269.56 337.68L269.81 337.99L269.94 338.14L270.08 338.3L270.23 338.45L270.39 338.58L270.55 338.73L270.7 338.87L270.87 339.02L271.05 339.16L271.23 339.29L271.6 339.54L271.8 339.66L272 339.79L272.2 339.91L272.41 340.04L272.62 340.15L272.84 340.27L273.06 340.39L273.29 340.5L273.52 340.62L273.75 340.73L274 340.85L274.5 341.06L274.75 341.17L275.02 341.28L275.29 341.38L275.55 341.49L276.11 341.68L276.39 341.78L276.98 341.98L277.28 342.07L277.59 342.16L277.9 342.26L278.22 342.34L278.53 342.43L278.86 342.51L279.53 342.67L279.76 342.73L280 342.79L280.22 342.84L280.87 343.02L281.29 343.14L281.49 343.2L281.67 343.26L281.87 343.31L282.05 343.37L282.24 343.44L282.42 343.5L282.58 343.56L282.75 343.63L282.91 343.69L283.07 343.76L283.22 343.82L283.37 343.89L283.52 343.95L283.66 344.02L283.79 344.08L283.93 344.15L284.04 344.22L284.17 344.28L284.28 344.35L284.4 344.42L284.51 344.49L284.61 344.57L284.8 344.71L284.89 344.78L284.98 344.85L285.06 344.92L285.3 345.16L285.44 345.32L285.58 345.5L285.63 345.58L285.75 345.75L285.85 345.93L285.9 346.03L285.94 346.12L285.99 346.22L286.02 346.32L286.06 346.42L286.18 346.81L286.2 346.92L286.22 347.02L286.23 347.13L286.25 347.23L286.26 347.34L286.26 347.45L286.27 347.56L286.27 347.79L286.26 347.91L286.25 348.01L286.24 348.13L286.23 348.24L286.21 348.35L286.18 348.46L286.16 348.56L286.13 348.67L286.1 348.77L285.98 349.06L285.94 349.15L285.89 349.25L285.84 349.34L285.6 349.69L285.54 349.78L285.4 349.94L285.32 350.03L285.24 350.11L285.16 350.19L285.07 350.26L284.89 350.41L284.8 350.48L284.71 350.56L284.61 350.63L284.5 350.7L284.4 350.77L284.29 350.84L284.18 350.9L283.95 351.02L283.83 351.07L283.71 351.13L283.58 351.17L283.46 351.22L283.32 351.27L283.2 351.31L282.64 351.47L282.2 351.56L282.04 351.58L281.89 351.61L281.73 351.63L281.57 351.65L281.41 351.67L281.24 351.68L281.07 351.7L280.9 351.71L280.73 351.72L280.56 351.72L280.38 351.73L279.64 351.73L279.27 351.71L279.09 351.7L278.9 351.68L278.72 351.66L278.55 351.64L278.38 351.62L278.21 351.59L278.03 351.56L277.87 351.53L277.54 351.45L277.38 351.41L277.22 351.37L277.06 351.32L276.9 351.28L276.76 351.23L276.61 351.17L276.46 351.13L276.02 350.95L275.88 350.88L275.74 350.82L275.46 350.68L275.33 350.6L275.2 350.53L274.81 350.3L274.69 350.22L274.46 350.04L274.35 349.95L274.24 349.85L274.14 349.76L273.94 349.57L273.85 349.46L273.77 349.35L273.69 349.24L273.61 349.13L273.54 349.01L273.47 348.9L273.4 348.78L273.34 348.66L273.22 348.4L273.17 348.27L273.13 348.14L273.08 348L273.05 347.87L273.01 347.72L272.98 347.58L272.95 347.43L272.94 347.28L272.92 347.13L272.89 346.65L272.89 346.48L267.51 346.48L267.51 346.56L267.52 346.83L267.54 347.34L267.6 347.84L267.64 348.08L267.69 348.32L267.74 348.57L267.8 348.79L267.87 349.03L267.94 349.26L268.02 349.49L268.11 349.7L268.21 349.92L268.31 350.14L268.42 350.35L268.54 350.55L268.66 350.75L268.8 350.96L268.94 351.15L269.08 351.34L269.24 351.53L269.58 351.89L269.76 352.06L269.94 352.23L270.34 352.57L270.55 352.73L270.76 352.87L270.99 353.02L271.46 353.32L271.71 353.47L271.95 353.6L272.19 353.73L272.45 353.86L272.7 353.99L272.95 354.11L273.2 354.22L273.47 354.32L273.73 354.43L274.26 354.63L274.53 354.72L274.79 354.8L275.34 354.96L275.9 355.1L276.47 355.21L276.76 355.26L277.05 355.31L277.34 355.36L277.64 355.4L277.94 355.43L278.24 355.46L278.85 355.5L279.17 355.52L279.8 355.54L280.45 355.54L280.79 355.53L281.11 355.52L281.43 355.51L281.75 355.49L282.06 355.47L282.38 355.44L282.68 355.41L282.98 355.38L283.27 355.34L283.57 355.29L283.86 355.25L284.13 355.2L284.42 355.14L284.69 355.09L284.96 355.03L285.23 354.96L285.49 354.88L285.74 354.81L286 354.73L286.49 354.55L286.73 354.46L286.97 354.36L287.19 354.26L287.42 354.16L287.65 354.04L287.87 353.93L288.08 353.81L288.3 353.68L288.51 353.55L288.71 353.43L289.1 353.15L289.28 353L289.47 352.86L289.63 352.72L289.8 352.56L289.96 352.41L290.12 352.25L290.27 352.09L290.4 351.93L290.79 351.42L291.12 350.89L291.29 350.51L291.37 350.33L291.45 350.13L291.52 349.93L291.64 349.54L291.69 349.33L291.77 348.91L291.8 348.7L291.82 348.48L291.83 348.26L291.84 348.03L291.84 347.58L291.83 347.37L291.82 347.16L291.81 346.95L291.79 346.75L291.77 346.54L291.71 346.15L291.67 345.95L291.62 345.75L291.52 345.38L291.45 345.19L291.39 345.01L291.32 344.83L291.16 344.47L291.08 344.3L290.98 344.12L290.88 343.96L290.78 343.8L290.67 343.63L290.43 343.31L290.18 343L289.9 342.7L289.74 342.55L289.59 342.42L289.44 342.27L289.27 342.13L289.1 342L288.92 341.86L288.75 341.73L288.56 341.6L288.36 341.47L288.17 341.34L287.97 341.21L287.77 341.09L287.56 340.96L287.13 340.73L286.44 340.37L286.21 340.26L285.96 340.15L285.71 340.04L285.47 339.93L285.21 339.83L284.94 339.72L284.68 339.62L284.41 339.51L284.13 339.41L283.85 339.31L283.56 339.23L283.27 339.13L282.98 339.04L282.06 338.77L281.74 338.69L281.42 338.6L281.09 338.52L280.84 338.48L280.13 338.3L279.91 338.24L279.69 338.19L279.26 338.07L279.05 338.01L278.85 337.94L278.46 337.82L278.27 337.76L278.08 337.7L277.89 337.64L277.72 337.58L277.55 337.51L277.38 337.45L277.22 337.38L277.06 337.32L276.9 337.25L276.76 337.18L276.62 337.12L276.34 336.98L276.09 336.85L275.73 336.64L275.63 336.57L275.52 336.49L275.32 336.35L275.24 336.27L275.15 336.2L274.97 336.05L274.89 335.97L274.81 335.89L274.73 335.81L274.59 335.65L274.53 335.56L274.47 335.48L274.41 335.39L274.35 335.32L274.29 335.23L274.19 335.05L274.11 334.87L274.07 334.77L274.03 334.68L274 334.59L273.94 334.4L273.92 334.3L273.9 334.21L273.89 334.11L273.88 334L273.86 333.8L273.86 333.59L273.89 333.26L273.9 333.16L273.94 332.95L274 332.75L274.03 332.64L274.06 332.54L274.14 332.34L274.18 332.25L274.28 332.06L274.33 331.97L274.56 331.61L274.63 331.52L274.7 331.44L274.77 331.36L274.84 331.28L275 331.12L275.08 331.04L275.17 330.96L275.25 330.88L275.42 330.74L275.53 330.66L275.63 330.6L275.74 330.54L275.85 330.47L275.96 330.41L276.08 330.35L276.18 330.29L276.3 330.23L276.42 330.18L276.55 330.13L276.67 330.08L276.92 329.98L277.06 329.94L277.19 329.9L277.61 329.79L278.05 329.7L278.35 329.66L278.5 329.63L278.66 329.62L278.82 329.6L278.98 329.59L279.15 329.58L279.3 329.57L279.47 329.56L280.18 329.56L280.54 329.58L280.87 329.6L281.38 329.66L281.54 329.68L282.01 329.77L282.6 329.92L282.74 329.97L282.89 330.02L283.17 330.12L283.55 330.3L283.81 330.44L283.93 330.51L284.05 330.59L284.16 330.66L284.4 330.82L284.62 331L284.72 331.09L284.82 331.18L284.92 331.27L285.1 331.46L285.19 331.55L285.28 331.65L285.36 331.76L285.44 331.86L285.51 331.96L285.71 332.28L285.77 332.39L285.82 332.5L285.88 332.62L285.98 332.86L286.1 333.21L286.16 333.47L286.18 333.6L286.21 333.73L286.23 333.85L286.27 334.41L286.27 334.55L291.64 334.55L291.64 334.01L291.62 333.56L291.6 333.34L291.57 333.12L291.53 332.92L291.49 332.7L291.39 332.28L291.32 332.08L291.25 331.88L291.18 331.67L291.1 331.47L291.01 331.29L290.92 331.09L290.82 330.9L290.71 330.7L290.59 330.52L290.47 330.34L290.34 330.15L290.07 329.8L289.92 329.62L289.76 329.44L289.6 329.27L289.27 328.94L289.09 328.77L288.9 328.61L288.71 328.44L288.31 328.13L288.1 327.98L287.89 327.83L287.45 327.55L287.22 327.43L286.75 327.17L286.51 327.06L286.28 326.94L286.02 326.84L285.77 326.73L285.52 326.64L284.98 326.46L284.72 326.38L284.44 326.3L284.16 326.23L283.88 326.16L283.3 326.04L283.01 325.99L282.7 325.94L282.41 325.9L282.09 325.87L281.78 325.84L281.47 325.81L280.82 325.77L280.49 325.76L280.15 325.75L279.5 325.75L279.19 325.76ZM307.26 340.64L296.71 355.2L303.35 355.2L310.58 344.28L317.81 355.2L324.54 355.2L313.9 340.64L324.16 326.25L317.51 326.25L310.48 336.92L303.55 326.25L297.01 326.25L307.26 340.64ZM218.4 340.56L207.85 355.11L214.49 355.11L221.72 344.19L228.94 355.11L235.69 355.11L225.04 340.56L235.29 326.17L228.66 326.17L221.62 336.84L214.69 326.17L208.15 326.17L218.4 340.56ZM241.44 355.11L262.64 355.11L262.64 351.31L247.01 351.31L247.01 326.17L241.44 326.17L241.44 355.11Z" id="a3UoLfZFoZ"></path><path d="M364.19 371.79L194.38 371.79L194.38 309.49L364.19 309.49L323.18 340.64L364.19 371.79ZM279.19 325.76L278.57 325.78L278.27 325.8L277.38 325.88L277.09 325.92L276.82 325.96L276.53 326.01L276.26 326.06L275.99 326.12L275.72 326.18L275.45 326.25L274.94 326.39L274.68 326.47L274.44 326.55L274.19 326.64L273.95 326.72L273.71 326.82L273.48 326.92L273.24 327.03L273.01 327.14L272.79 327.26L272.35 327.49L272.14 327.62L271.93 327.75L271.72 327.89L271.52 328.03L271.13 328.32L270.94 328.47L270.76 328.62L270.59 328.77L270.43 328.93L270.11 329.24L269.96 329.4L269.82 329.56L269.69 329.73L269.43 330.06L269.1 330.6L269 330.77L268.92 330.95L268.83 331.14L268.75 331.33L268.68 331.51L268.61 331.71L268.55 331.9L268.5 332.11L268.45 332.3L268.41 332.5L268.37 332.71L268.35 332.93L268.32 333.13L268.29 333.78L268.3 334L268.32 334.42L268.34 334.62L268.4 335.02L268.44 335.22L268.48 335.4L268.53 335.6L268.58 335.79L268.64 335.97L268.71 336.15L268.78 336.33L268.86 336.51L268.95 336.68L269.03 336.86L269.12 337.02L269.22 337.19L269.33 337.36L269.44 337.52L269.56 337.68L269.81 337.99L269.94 338.14L270.08 338.3L270.23 338.45L270.39 338.58L270.55 338.73L270.7 338.87L270.87 339.02L271.05 339.16L271.23 339.29L271.6 339.54L271.8 339.66L272 339.79L272.2 339.91L272.41 340.04L272.62 340.15L272.84 340.27L273.06 340.39L273.29 340.5L273.52 340.62L273.75 340.73L274 340.85L274.5 341.06L274.75 341.17L275.02 341.28L275.29 341.38L275.55 341.49L276.11 341.68L276.39 341.78L276.98 341.98L277.28 342.07L277.59 342.16L277.9 342.26L278.22 342.34L278.53 342.43L278.86 342.51L279.53 342.67L279.76 342.73L280 342.79L280.22 342.84L280.87 343.02L281.29 343.14L281.49 343.2L281.67 343.26L281.87 343.31L282.05 343.37L282.24 343.44L282.42 343.5L282.58 343.56L282.75 343.63L282.91 343.69L283.07 343.76L283.22 343.82L283.37 343.89L283.52 343.95L283.66 344.02L283.79 344.08L283.93 344.15L284.04 344.22L284.17 344.28L284.28 344.35L284.4 344.42L284.51 344.49L284.61 344.57L284.8 344.71L284.89 344.78L284.98 344.85L285.06 344.92L285.3 345.16L285.44 345.32L285.58 345.5L285.63 345.58L285.75 345.75L285.85 345.93L285.9 346.03L285.94 346.12L285.99 346.22L286.02 346.32L286.06 346.42L286.18 346.81L286.2 346.92L286.22 347.02L286.23 347.13L286.25 347.23L286.26 347.34L286.26 347.45L286.27 347.56L286.27 347.79L286.26 347.91L286.25 348.01L286.24 348.13L286.23 348.24L286.21 348.35L286.18 348.46L286.16 348.56L286.13 348.67L286.1 348.77L285.98 349.06L285.94 349.15L285.89 349.25L285.84 349.34L285.6 349.69L285.54 349.78L285.4 349.94L285.32 350.03L285.24 350.11L285.16 350.19L285.07 350.26L284.89 350.41L284.8 350.48L284.71 350.56L284.61 350.63L284.5 350.7L284.4 350.77L284.29 350.84L284.18 350.9L283.95 351.02L283.83 351.07L283.71 351.13L283.58 351.17L283.46 351.22L283.32 351.27L283.2 351.31L282.64 351.47L282.2 351.56L282.04 351.58L281.89 351.61L281.73 351.63L281.57 351.65L281.41 351.67L281.24 351.68L281.07 351.7L280.9 351.71L280.73 351.72L280.56 351.72L280.38 351.73L279.64 351.73L279.27 351.71L279.09 351.7L278.9 351.68L278.72 351.66L278.55 351.64L278.38 351.62L278.21 351.59L278.03 351.56L277.87 351.53L277.54 351.45L277.38 351.41L277.22 351.37L277.06 351.32L276.9 351.28L276.76 351.23L276.61 351.17L276.46 351.13L276.02 350.95L275.88 350.88L275.74 350.82L275.46 350.68L275.33 350.6L275.2 350.53L274.81 350.3L274.69 350.22L274.46 350.04L274.35 349.95L274.24 349.85L274.14 349.76L273.94 349.57L273.85 349.46L273.77 349.35L273.69 349.24L273.61 349.13L273.54 349.01L273.47 348.9L273.4 348.78L273.34 348.66L273.22 348.4L273.17 348.27L273.13 348.14L273.08 348L273.05 347.87L273.01 347.72L272.98 347.58L272.95 347.43L272.94 347.28L272.92 347.13L272.89 346.65L272.89 346.48L267.51 346.48L267.51 346.56L267.52 346.83L267.54 347.34L267.6 347.84L267.64 348.08L267.69 348.32L267.74 348.57L267.8 348.79L267.87 349.03L267.94 349.26L268.02 349.49L268.11 349.7L268.21 349.92L268.31 350.14L268.42 350.35L268.54 350.55L268.66 350.75L268.8 350.96L268.94 351.15L269.08 351.34L269.24 351.53L269.58 351.89L269.76 352.06L269.94 352.23L270.34 352.57L270.55 352.73L270.76 352.87L270.99 353.02L271.46 353.32L271.71 353.47L271.95 353.6L272.19 353.73L272.45 353.86L272.7 353.99L272.95 354.11L273.2 354.22L273.47 354.32L273.73 354.43L274.26 354.63L274.53 354.72L274.79 354.8L275.34 354.96L275.9 355.1L276.47 355.21L276.76 355.26L277.05 355.31L277.34 355.36L277.64 355.4L277.94 355.43L278.24 355.46L278.85 355.5L279.17 355.52L279.8 355.54L280.45 355.54L280.79 355.53L281.11 355.52L281.43 355.51L281.75 355.49L282.06 355.47L282.38 355.44L282.68 355.41L282.98 355.38L283.27 355.34L283.57 355.29L283.86 355.25L284.13 355.2L284.42 355.14L284.69 355.09L284.96 355.03L285.23 354.96L285.49 354.88L285.74 354.81L286 354.73L286.49 354.55L286.73 354.46L286.97 354.36L287.19 354.26L287.42 354.16L287.65 354.04L287.87 353.93L288.08 353.81L288.3 353.68L288.51 353.55L288.71 353.43L289.1 353.15L289.28 353L289.47 352.86L289.63 352.72L289.8 352.56L289.96 352.41L290.12 352.25L290.27 352.09L290.4 351.93L290.79 351.42L291.12 350.89L291.29 350.51L291.37 350.33L291.45 350.13L291.52 349.93L291.64 349.54L291.69 349.33L291.77 348.91L291.8 348.7L291.82 348.48L291.83 348.26L291.84 348.03L291.84 347.58L291.83 347.37L291.82 347.16L291.81 346.95L291.79 346.75L291.77 346.54L291.71 346.15L291.67 345.95L291.62 345.75L291.52 345.38L291.45 345.19L291.39 345.01L291.32 344.83L291.16 344.47L291.08 344.3L290.98 344.12L290.88 343.96L290.78 343.8L290.67 343.63L290.43 343.31L290.18 343L289.9 342.7L289.74 342.55L289.59 342.42L289.44 342.27L289.27 342.13L289.1 342L288.92 341.86L288.75 341.73L288.56 341.6L288.36 341.47L288.17 341.34L287.97 341.21L287.77 341.09L287.56 340.96L287.13 340.73L286.44 340.37L286.21 340.26L285.96 340.15L285.71 340.04L285.47 339.93L285.21 339.83L284.94 339.72L284.68 339.62L284.41 339.51L284.13 339.41L283.85 339.31L283.56 339.23L283.27 339.13L282.98 339.04L282.06 338.77L281.74 338.69L281.42 338.6L281.09 338.52L280.84 338.48L280.13 338.3L279.91 338.24L279.69 338.19L279.26 338.07L279.05 338.01L278.85 337.94L278.46 337.82L278.27 337.76L278.08 337.7L277.89 337.64L277.72 337.58L277.55 337.51L277.38 337.45L277.22 337.38L277.06 337.32L276.9 337.25L276.76 337.18L276.62 337.12L276.34 336.98L276.09 336.85L275.73 336.64L275.63 336.57L275.52 336.49L275.32 336.35L275.24 336.27L275.15 336.2L274.97 336.05L274.89 335.97L274.81 335.89L274.73 335.81L274.59 335.65L274.53 335.56L274.47 335.48L274.41 335.39L274.35 335.32L274.29 335.23L274.19 335.05L274.11 334.87L274.07 334.77L274.03 334.68L274 334.59L273.94 334.4L273.92 334.3L273.9 334.21L273.89 334.11L273.88 334L273.86 333.8L273.86 333.59L273.89 333.26L273.9 333.16L273.94 332.95L274 332.75L274.03 332.64L274.06 332.54L274.14 332.34L274.18 332.25L274.28 332.06L274.33 331.97L274.56 331.61L274.63 331.52L274.7 331.44L274.77 331.36L274.84 331.28L275 331.12L275.08 331.04L275.17 330.96L275.25 330.88L275.42 330.74L275.53 330.66L275.63 330.6L275.74 330.54L275.85 330.47L275.96 330.41L276.08 330.35L276.18 330.29L276.3 330.23L276.42 330.18L276.55 330.13L276.67 330.08L276.92 329.98L277.06 329.94L277.19 329.9L277.61 329.79L278.05 329.7L278.35 329.66L278.5 329.63L278.66 329.62L278.82 329.6L278.98 329.59L279.15 329.58L279.3 329.57L279.47 329.56L280.18 329.56L280.54 329.58L280.87 329.6L281.38 329.66L281.54 329.68L282.01 329.77L282.6 329.92L282.74 329.97L282.89 330.02L283.17 330.12L283.55 330.3L283.81 330.44L283.93 330.51L284.05 330.59L284.16 330.66L284.4 330.82L284.62 331L284.72 331.09L284.82 331.18L284.92 331.27L285.1 331.46L285.19 331.55L285.28 331.65L285.36 331.76L285.44 331.86L285.51 331.96L285.71 332.28L285.77 332.39L285.82 332.5L285.88 332.62L285.98 332.86L286.1 333.21L286.16 333.47L286.18 333.6L286.21 333.73L286.23 333.85L286.27 334.41L286.27 334.55L291.64 334.55L291.64 334.01L291.62 333.56L291.6 333.34L291.57 333.12L291.53 332.92L291.49 332.7L291.39 332.28L291.32 332.08L291.25 331.88L291.18 331.67L291.1 331.47L291.01 331.29L290.92 331.09L290.82 330.9L290.71 330.7L290.59 330.52L290.47 330.34L290.34 330.15L290.07 329.8L289.92 329.62L289.76 329.44L289.6 329.27L289.27 328.94L289.09 328.77L288.9 328.61L288.71 328.44L288.31 328.13L288.1 327.98L287.89 327.83L287.45 327.55L287.22 327.43L286.75 327.17L286.51 327.06L286.28 326.94L286.02 326.84L285.77 326.73L285.52 326.64L284.98 326.46L284.72 326.38L284.44 326.3L284.16 326.23L283.88 326.16L283.3 326.04L283.01 325.99L282.7 325.94L282.41 325.9L282.09 325.87L281.78 325.84L281.47 325.81L280.82 325.77L280.49 325.76L280.15 325.75L279.5 325.75L279.19 325.76ZM307.26 340.64L296.71 355.2L303.35 355.2L310.58 344.28L317.81 355.2L324.54 355.2L313.9 340.64L324.16 326.25L317.51 326.25L310.48 336.92L303.55 326.25L297.01 326.25L307.26 340.64ZM218.4 340.56L207.85 355.11L214.49 355.11L221.72 344.19L228.94 355.11L235.69 355.11L225.04 340.56L235.29 326.17L228.66 326.17L221.62 336.84L214.69 326.17L208.15 326.17L218.4 340.56ZM241.44 355.11L262.64 355.11L262.64 351.31L247.01 351.31L247.01 326.17L241.44 326.17L241.44 355.11Z" id="b1w4FtEnjA"></path><path d="M429.51 166.52L390.06 166.52C390.06 184.1 390.06 193.86 390.06 195.81C379.63 195.81 373.85 195.81 372.68 195.81C370.24 195.81 368.88 198.1 370.54 199.53C374.24 203.27 403.94 233.13 407.64 236.86C408.82 237.8 410.77 237.8 411.85 236.86C415.55 233.13 445.23 203.27 448.95 199.53C450.7 198.1 449.44 195.81 446.99 195.81C444.66 195.81 438.84 195.81 429.51 195.81C429.51 191.91 429.51 182.14 429.51 166.52Z" id="f1txc2bb92"></path><path d="M429.51 166.52L390.06 166.52C390.06 184.1 390.06 193.86 390.06 195.81C379.63 195.81 373.85 195.81 372.68 195.81C370.24 195.81 368.88 198.1 370.54 199.53C374.24 203.27 403.94 233.13 407.64 236.86C408.82 237.8 410.77 237.8 411.85 236.86C415.55 233.13 445.23 203.27 448.95 199.53C450.7 198.1 449.44 195.81 446.99 195.81C444.66 195.81 438.84 195.81 429.51 195.81C429.51 191.91 429.51 182.14 429.51 166.52Z" id="aCjIYAKCa"></path><path d="M429.61 147.99C429.61 155.96 429.61 160.39 429.61 161.28C429.61 161.28 429.61 161.28 429.61 161.28C405.94 161.28 392.8 161.28 390.16 161.28C390.16 161.28 390.16 161.28 390.16 161.28C390.16 153.3 390.16 148.88 390.16 147.99C390.16 147.99 390.16 147.99 390.16 147.99C413.83 147.99 426.99 147.99 429.61 147.99C429.61 147.99 429.61 147.99 429.61 147.99Z" id="anXsCMTOh"></path><path d="M429.61 147.99C429.61 155.96 429.61 160.39 429.61 161.28C429.61 161.28 429.61 161.28 429.61 161.28C405.94 161.28 392.8 161.28 390.16 161.28C390.16 161.28 390.16 161.28 390.16 161.28C390.16 153.3 390.16 148.88 390.16 147.99C390.16 147.99 390.16 147.99 390.16 147.99C413.83 147.99 426.99 147.99 429.61 147.99C429.61 147.99 429.61 147.99 429.61 147.99Z" id="a1IZsrki6S"></path><path d="M388.4 399.31C372 399.31 240.76 399.31 224.36 399.31C214.98 399.31 207.27 392.7 207.27 384.49C207.27 383.96 207.27 381.3 207.27 376.53C206.43 376.53 199.71 376.53 198.87 376.53C198.87 383.03 198.87 386.65 198.87 387.37C198.87 397.95 208.73 406.49 220.93 406.49C238.02 406.49 374.65 406.49 391.72 406.49C403.94 406.49 413.79 397.95 413.79 387.37C413.79 373.04 413.79 258.39 413.79 244.06C412.53 244.49 411.16 244.74 409.79 244.74C408.33 244.65 406.86 244.4 405.5 243.97C405.5 272.08 405.5 370.44 405.5 384.49C405.5 392.62 397.87 399.31 388.4 399.31Z" id="a2aZO3oI3"></path><path d="M388.4 399.31C372 399.31 240.76 399.31 224.36 399.31C214.98 399.31 207.27 392.7 207.27 384.49C207.27 383.96 207.27 381.3 207.27 376.53C206.43 376.53 199.71 376.53 198.87 376.53C198.87 383.03 198.87 386.65 198.87 387.37C198.87 397.95 208.73 406.49 220.93 406.49C238.02 406.49 374.65 406.49 391.72 406.49C403.94 406.49 413.79 397.95 413.79 387.37C413.79 373.04 413.79 258.39 413.79 244.06C412.53 244.49 411.16 244.74 409.79 244.74C408.33 244.65 406.86 244.4 405.5 243.97C405.5 272.08 405.5 370.44 405.5 384.49C405.5 392.62 397.87 399.31 388.4 399.31Z" id="bBEejxsK7"></path><path d="M224.36 161.54C234.87 161.54 287.4 161.54 381.97 161.54C381.97 161.39 381.97 160.69 381.97 159.41C381.97 156.31 381.97 154.59 381.97 154.25C285.41 154.25 231.77 154.25 221.03 154.25C208.83 154.25 198.97 162.8 198.97 173.39C198.97 182.13 198.97 225.93 198.97 304.75C199.53 304.75 202.33 304.75 207.37 304.75C207.37 227.71 207.37 184.91 207.37 176.35C207.32 176.35 207.28 176.35 207.27 176.35C207.27 168.22 214.88 161.54 224.36 161.54Z" id="c4Eb3lgrNw"></path><path d="M224.36 161.54C234.87 161.54 287.4 161.54 381.97 161.54C381.97 161.39 381.97 160.69 381.97 159.41C381.97 156.31 381.97 154.59 381.97 154.25C285.41 154.25 231.77 154.25 221.03 154.25C208.83 154.25 198.97 162.8 198.97 173.39C198.97 182.13 198.97 225.93 198.97 304.75C199.53 304.75 202.33 304.75 207.37 304.75C207.37 227.71 207.37 184.91 207.37 176.35C207.32 176.35 207.28 176.35 207.27 176.35C207.27 168.22 214.88 161.54 224.36 161.54Z" id="b5eKeRP0E"></path><path d="M232.27 214.35C317.63 214.35 365.05 214.35 374.54 214.35C368.51 208.3 365.15 204.95 364.49 204.27C364.39 204.2 364.19 204.03 364.09 203.85C346.51 203.85 302.57 203.85 232.27 203.85C232.27 205.25 232.27 208.75 232.27 214.35Z" id="c8PZgU8UMS"></path><path d="M232.27 214.35C317.63 214.35 365.05 214.35 374.54 214.35C368.51 208.3 365.15 204.95 364.49 204.27C364.39 204.2 364.19 204.03 364.09 203.85C346.51 203.85 302.57 203.85 232.27 203.85C232.27 205.25 232.27 208.75 232.27 214.35Z" id="bz2o4MfV9"></path><path d="M380.49 220.95C380.49 227.25 380.49 230.75 380.49 231.45C380.49 231.45 380.49 231.45 380.49 231.45C291.56 231.45 242.14 231.45 232.27 231.45C232.27 231.45 232.27 231.45 232.27 231.45C232.27 225.15 232.27 221.65 232.27 220.95C232.27 220.95 232.27 220.95 232.27 220.95C321.2 220.95 370.62 220.95 380.49 220.95C380.49 220.95 380.49 220.95 380.49 220.95Z" id="k2bzQHnUF1"></path><path d="M380.49 220.95C380.49 227.25 380.49 230.75 380.49 231.45C380.49 231.45 380.49 231.45 380.49 231.45C291.56 231.45 242.14 231.45 232.27 231.45C232.27 231.45 232.27 231.45 232.27 231.45C232.27 225.15 232.27 221.65 232.27 220.95C232.27 220.95 232.27 220.95 232.27 220.95C321.2 220.95 370.62 220.95 380.49 220.95C380.49 220.95 380.49 220.95 380.49 220.95Z" id="cPVP3szYl"></path><path d="M380.49 238.05C380.49 244.35 380.49 247.84 380.49 248.54C380.49 248.54 380.49 248.54 380.49 248.54C291.56 248.54 242.14 248.54 232.27 248.54C232.27 248.54 232.27 248.54 232.27 248.54C232.27 242.25 232.27 238.75 232.27 238.05C232.27 238.05 232.27 238.05 232.27 238.05C321.2 238.05 370.62 238.05 380.49 238.05C380.49 238.05 380.49 238.05 380.49 238.05Z" id="czqFLoDOF"></path><path d="M380.49 238.05C380.49 244.35 380.49 247.84 380.49 248.54C380.49 248.54 380.49 248.54 380.49 248.54C291.56 248.54 242.14 248.54 232.27 248.54C232.27 248.54 232.27 248.54 232.27 248.54C232.27 242.25 232.27 238.75 232.27 238.05C232.27 238.05 232.27 238.05 232.27 238.05C321.2 238.05 370.62 238.05 380.49 238.05C380.49 238.05 380.49 238.05 380.49 238.05Z" id="cztHZE2zY"></path><path d="M380.49 255.15C380.49 261.45 380.49 264.95 380.49 265.65C380.49 265.65 380.49 265.65 380.49 265.65C291.56 265.65 242.14 265.65 232.27 265.65C232.27 265.65 232.27 265.65 232.27 265.65C232.27 259.35 232.27 255.85 232.27 255.15C232.27 255.15 232.27 255.15 232.27 255.15C321.2 255.15 370.62 255.15 380.49 255.15C380.49 255.15 380.49 255.15 380.49 255.15Z" id="eoYmbHqk8"></path><path d="M380.49 255.15C380.49 261.45 380.49 264.95 380.49 265.65C380.49 265.65 380.49 265.65 380.49 265.65C291.56 265.65 242.14 265.65 232.27 265.65C232.27 265.65 232.27 265.65 232.27 265.65C232.27 259.35 232.27 255.85 232.27 255.15C232.27 255.15 232.27 255.15 232.27 255.15C321.2 255.15 370.62 255.15 380.49 255.15C380.49 255.15 380.49 255.15 380.49 255.15Z" id="b8JFKzFfec"></path><path d="M348.37 272.16C348.37 278.47 348.37 281.96 348.37 282.66C348.37 282.66 348.37 282.66 348.37 282.66C278.71 282.66 240 282.66 232.27 282.66C232.27 282.66 232.27 282.66 232.27 282.66C232.27 276.36 232.27 272.87 232.27 272.16C232.27 272.16 232.27 272.16 232.27 272.16C301.93 272.16 340.63 272.16 348.37 272.16C348.37 272.16 348.37 272.16 348.37 272.16Z" id="cCo3aZ346"></path><path d="M348.37 272.16C348.37 278.47 348.37 281.96 348.37 282.66C348.37 282.66 348.37 282.66 348.37 282.66C278.71 282.66 240 282.66 232.27 282.66C232.27 282.66 232.27 282.66 232.27 282.66C232.27 276.36 232.27 272.87 232.27 272.16C232.27 272.16 232.27 272.16 232.27 272.16C301.93 272.16 340.63 272.16 348.37 272.16C348.37 272.16 348.37 272.16 348.37 272.16Z" id="cr6hNVd91"></path><path d="M393 135.63C391.44 135.63 390.16 136.64 390.16 137.83C390.16 138.16 390.16 139.79 390.16 142.74C392.78 142.74 405.9 142.74 429.51 142.74C429.51 139.79 429.51 138.15 429.51 137.83C428.67 136.36 427.73 135.63 426.69 135.63C423.31 135.63 396.36 135.63 393 135.63Z" id="a9It7BNAF"></path><path d="M393 135.63C391.44 135.63 390.16 136.64 390.16 137.83C390.16 138.16 390.16 139.79 390.16 142.74C392.78 142.74 405.9 142.74 429.51 142.74C429.51 139.79 429.51 138.15 429.51 137.83C428.67 136.36 427.73 135.63 426.69 135.63C423.31 135.63 396.36 135.63 393 135.63Z" id="c2h3MJgwBX"></path><path d="M572.09 271.06C572.09 390.66 460.07 487.76 322.1 487.76C184.13 487.76 72.12 390.66 72.12 271.06C72.12 151.47 184.13 54.37 322.1 54.37C460.07 54.37 572.09 151.47 572.09 271.06Z" id="a1rvYSkm3n"></path></defs><g><g><g><use xlink:href="#g1nNx3gE7c" opacity="1" fill="#0081c9" fill-opacity="1"></use><g><use xlink:href="#g1nNx3gE7c" opacity="1" fill-opacity="0" stroke="#000000" stroke-width="1" stroke-opacity="0"></use></g></g><g><use xlink:href="#b14y3kJOKN" opacity="1" fill="#000000" fill-opacity="0"></use><g><use xlink:href="#b14y3kJOKN" opacity="1" fill-opacity="0" stroke="#000000" stroke-width="1" stroke-opacity="0"></use></g></g><g><use xlink:href="#cpevEnoNx" opacity="1" fill="#0f4b9f" fill-opacity="1"></use><g><use xlink:href="#cpevEnoNx" opacity="1" fill-opacity="0" stroke="#000000" stroke-width="1" stroke-opacity="0"></use></g></g><g><use xlink:href="#a4EZm2aX9m" opacity="1" fill="#000000" fill-opacity="0"></use><g><use xlink:href="#a4EZm2aX9m" opacity="1" fill-opacity="0" stroke="#000000" stroke-width="1" stroke-opacity="0"></use></g></g><g><use xlink:href="#a3UoLfZFoZ" opacity="1" fill="#ffffff" fill-opacity="1"></use><g><use xlink:href="#a3UoLfZFoZ" opacity="1" fill-opacity="0" stroke="#000000" stroke-width="1" stroke-opacity="0"></use></g></g><g><use xlink:href="#b1w4FtEnjA" opacity="1" fill="#000000" fill-opacity="0"></use><g><use xlink:href="#b1w4FtEnjA" opacity="1" fill-opacity="0" stroke="#000000" stroke-width="1" stroke-opacity="0"></use></g></g><g><use xlink:href="#f1txc2bb92" opacity="1" fill="#ffffff" fill-opacity="1"></use><g><use xlink:href="#f1txc2bb92" opacity="1" fill-opacity="0" stroke="#000000" stroke-width="1" stroke-opacity="0"></use></g></g><g><use xlink:href="#aCjIYAKCa" opacity="1" fill="#000000" fill-opacity="0"></use><g><use xlink:href="#aCjIYAKCa" opacity="1" fill-opacity="0" stroke="#000000" stroke-width="1" stroke-opacity="0"></use></g></g><g><use xlink:href="#anXsCMTOh" opacity="1" fill="#ffffff" fill-opacity="1"></use><g><use xlink:href="#anXsCMTOh" opacity="1" fill-opacity="0" stroke="#000000" stroke-width="1" stroke-opacity="0"></use></g></g><g><use xlink:href="#a1IZsrki6S" opacity="1" fill="#000000" fill-opacity="0"></use><g><use xlink:href="#a1IZsrki6S" opacity="1" fill-opacity="0" stroke="#000000" stroke-width="1" stroke-opacity="0"></use></g></g><g><use xlink:href="#a2aZO3oI3" opacity="1" fill="#ffffff" fill-opacity="1"></use><g><use xlink:href="#a2aZO3oI3" opacity="1" fill-opacity="0" stroke="#000000" stroke-width="1" stroke-opacity="0"></use></g></g><g><use xlink:href="#bBEejxsK7" opacity="1" fill="#000000" fill-opacity="0"></use><g><use xlink:href="#bBEejxsK7" opacity="1" fill-opacity="0" stroke="#000000" stroke-width="1" stroke-opacity="0"></use></g></g><g><use xlink:href="#c4Eb3lgrNw" opacity="1" fill="#ffffff" fill-opacity="1"></use><g><use xlink:href="#c4Eb3lgrNw" opacity="1" fill-opacity="0" stroke="#000000" stroke-width="1" stroke-opacity="0"></use></g></g><g><use xlink:href="#b5eKeRP0E" opacity="1" fill="#000000" fill-opacity="0"></use><g><use xlink:href="#b5eKeRP0E" opacity="1" fill-opacity="0" stroke="#000000" stroke-width="1" stroke-opacity="0"></use></g></g><g><use xlink:href="#c8PZgU8UMS" opacity="1" fill="#ffffff" fill-opacity="1"></use><g><use xlink:href="#c8PZgU8UMS" opacity="1" fill-opacity="0" stroke="#000000" stroke-width="1" stroke-opacity="0"></use></g></g><g><use xlink:href="#bz2o4MfV9" opacity="1" fill="#000000" fill-opacity="0"></use><g><use xlink:href="#bz2o4MfV9" opacity="1" fill-opacity="0" stroke="#000000" stroke-width="1" stroke-opacity="0"></use></g></g><g><use xlink:href="#k2bzQHnUF1" opacity="1" fill="#ffffff" fill-opacity="1"></use><g><use xlink:href="#k2bzQHnUF1" opacity="1" fill-opacity="0" stroke="#000000" stroke-width="1" stroke-opacity="0"></use></g></g><g><use xlink:href="#cPVP3szYl" opacity="1" fill="#000000" fill-opacity="0"></use><g><use xlink:href="#cPVP3szYl" opacity="1" fill-opacity="0" stroke="#000000" stroke-width="1" stroke-opacity="0"></use></g></g><g><use xlink:href="#czqFLoDOF" opacity="1" fill="#ffffff" fill-opacity="1"></use><g><use xlink:href="#czqFLoDOF" opacity="1" fill-opacity="0" stroke="#000000" stroke-width="1" stroke-opacity="0"></use></g></g><g><use xlink:href="#cztHZE2zY" opacity="1" fill="#000000" fill-opacity="0"></use><g><use xlink:href="#cztHZE2zY" opacity="1" fill-opacity="0" stroke="#000000" stroke-width="1" stroke-opacity="0"></use></g></g><g><use xlink:href="#eoYmbHqk8" opacity="1" fill="#ffffff" fill-opacity="1"></use><g><use xlink:href="#eoYmbHqk8" opacity="1" fill-opacity="0" stroke="#000000" stroke-width="1" stroke-opacity="0"></use></g></g><g><use xlink:href="#b8JFKzFfec" opacity="1" fill="#000000" fill-opacity="0"></use><g><use xlink:href="#b8JFKzFfec" opacity="1" fill-opacity="0" stroke="#000000" stroke-width="1" stroke-opacity="0"></use></g></g><g><use xlink:href="#cCo3aZ346" opacity="1" fill="#ffffff" fill-opacity="1"></use><g><use xlink:href="#cCo3aZ346" opacity="1" fill-opacity="0" stroke="#000000" stroke-width="1" stroke-opacity="0"></use></g></g><g><use xlink:href="#cr6hNVd91" opacity="1" fill="#000000" fill-opacity="0"></use><g><use xlink:href="#cr6hNVd91" opacity="1" fill-opacity="0" stroke="#000000" stroke-width="1" stroke-opacity="0"></use></g></g><g><use xlink:href="#a9It7BNAF" opacity="1" fill="#ffffff" fill-opacity="1"></use><g><use xlink:href="#a9It7BNAF" opacity="1" fill-opacity="0" stroke="#000000" stroke-width="1" stroke-opacity="0"></use></g></g><g><use xlink:href="#c2h3MJgwBX" opacity="1" fill="#000000" fill-opacity="0"></use><g><use xlink:href="#c2h3MJgwBX" opacity="1" fill-opacity="0" stroke="#000000" stroke-width="1" stroke-opacity="0"></use></g></g><g><use xlink:href="#a1rvYSkm3n" opacity="1" fill="#2717b8" fill-opacity="0"></use><g><use xlink:href="#a1rvYSkm3n" opacity="1" fill-opacity="0" stroke="#eeecf3" stroke-width="6" stroke-opacity="1"></use></g></g></g></g></svg>