<?xml version="1.0" encoding="UTF-8" standalone="no"?>
<!DOCTYPE svg PUBLIC "-//W3C//DTD SVG 1.1//EN" "http://www.w3.org/Graphics/SVG/1.1/DTD/svg11.dtd">
<svg version="1.1" xmlns="http://www.w3.org/2000/svg" xmlns:xlink="http://www.w3.org/1999/xlink" preserveAspectRatio="xMidYMid meet" viewBox="0 0 640 640" width="640" height="640"><defs><path d="M414.07 511.38C390.66 511.38 203.37 511.38 179.96 511.38C157.17 511.38 138.64 492.58 138.64 469.46C138.64 445.71 138.64 255.74 138.64 231.99C138.64 208.89 157.18 190.08 179.96 190.08C193.11 190.08 258.9 190.08 377.3 190.08L395.48 171.64C266.17 171.64 194.33 171.64 179.96 171.64C147.15 171.64 120.46 198.72 120.46 231.99C120.46 255.74 120.46 445.72 120.46 469.47C120.46 502.75 147.16 529.83 179.96 529.83C203.37 529.83 390.66 529.83 414.07 529.83C446.88 529.83 473.57 502.75 473.57 469.47C473.57 455.35 473.57 384.73 473.57 257.62C462.66 268.69 456.6 274.83 455.39 276.06C455.39 276.06 455.39 469.46 455.39 469.46C455.39 492.58 436.85 511.38 414.07 511.38Z" id="b17t0em4nR"></path><path d="M495.96 128.42L496.96 128.52L497.95 128.65L498.93 128.82L499.91 129.02L500.87 129.27L501.83 129.55L502.78 129.87L503.72 130.22L504.64 130.61L505.55 131.04L506.44 131.51L507.31 132.02L508.17 132.56L509 133.14L509.82 133.76L510.61 134.41L511.37 135.11L512.11 135.84L512.85 136.62L513.54 137.43L514.2 138.26L514.81 139.11L515.4 139.98L515.94 140.86L516.45 141.77L516.91 142.69L517.35 143.62L517.74 144.57L518.1 145.53L518.41 146.5L518.7 147.48L518.94 148.47L519.15 149.46L519.31 150.47L519.45 151.47L519.54 152.48L519.6 153.5L519.61 154.51L519.6 155.53L519.54 156.54L519.44 157.55L519.31 158.56L519.14 159.56L518.94 160.56L518.69 161.55L518.41 162.53L518.09 163.5L517.74 164.46L517.34 165.4L516.91 166.34L516.44 167.26L515.94 168.16L515.39 169.05L514.81 169.92L514.19 170.77L513.53 171.6L512.84 172.41L512.11 173.19L365.2 324.42L365.09 324.54L364.96 324.67L364.82 324.81L364.66 324.95L364.48 325.11L364.29 325.27L364.07 325.44L363.82 325.61L363.55 325.79L363.24 325.98L362.91 326.18L362.54 326.38L362.13 326.58L361.69 326.79L361.2 327.01L360.67 327.23L360.09 327.45L359.46 327.67L358.78 327.9L358.05 328.14L357.27 328.37L356.42 328.61L355.52 328.85L354.55 329.09L353.52 329.33L352.42 329.57L351.25 329.81L350.01 330.05L348.7 330.29L347.31 330.53L345.84 330.77L344.29 331.01L342.66 331.25L340.94 331.48L339.13 331.71L337.23 331.94L335.24 332.16L333.16 332.39L330.98 332.6L328.7 332.82L320 333.61L320.75 324.65L320.95 322.31L321.16 320.07L321.37 317.93L321.58 315.88L321.8 313.93L322.02 312.07L322.25 310.31L322.48 308.63L322.71 307.03L322.94 305.52L323.17 304.09L323.4 302.74L323.64 301.47L323.87 300.26L324.11 299.13L324.34 298.07L324.58 297.07L324.81 296.14L325.04 295.27L325.27 294.46L325.5 293.71L325.72 293.01L325.94 292.36L326.16 291.76L326.38 291.21L326.59 290.71L326.79 290.24L327 289.82L327.19 289.44L327.38 289.09L327.57 288.78L327.75 288.49L327.92 288.24L328.09 288.01L328.25 287.8L328.4 287.62L328.54 287.46L328.68 287.31L328.81 287.17L328.92 287.05L475.82 135.84L476.56 135.11L477.33 134.41L478.12 133.76L478.93 133.14L479.77 132.56L480.62 132.02L481.5 131.51L482.39 131.05L483.3 130.62L484.22 130.22L485.16 129.87L486.11 129.55L487.07 129.27L488.03 129.02L489.01 128.82L490 128.65L490.98 128.52L491.98 128.43L492.97 128.37L493.97 128.35L494.97 128.37L495.96 128.42ZM493.12 143.33L492.69 143.37L492.27 143.43L491.85 143.5L491.43 143.59L491.01 143.69L490.6 143.81L490.2 143.95L489.79 144.1L489.4 144.27L489.01 144.45L488.63 144.65L488.25 144.87L487.89 145.1L487.53 145.35L487.18 145.61L486.84 145.89L486.51 146.19L486.2 146.5L339.78 297.24L339.69 297.44L339.61 297.67L339.52 297.92L339.43 298.19L339.35 298.47L339.26 298.78L339.17 299.1L339.08 299.45L338.99 299.8L338.9 300.18L338.81 300.57L338.72 300.98L338.63 301.4L338.54 301.84L338.45 302.29L338.36 302.76L338.27 303.24L338.17 303.73L338.08 304.24L337.99 304.75L337.9 305.28L337.81 305.82L337.72 306.37L337.63 306.93L337.54 307.5L337.45 308.08L337.36 308.66L337.28 309.26L337.19 309.86L337.1 310.47L337.02 311.08L336.93 311.7L336.85 312.33L336.76 312.96L336.68 313.59L336.6 314.23L336.52 314.88L336.44 315.52L336.36 316.17L336.29 316.82L336.92 316.74L337.55 316.66L338.18 316.58L338.8 316.49L339.43 316.41L340.05 316.32L340.66 316.24L341.27 316.15L341.87 316.06L342.47 315.97L343.06 315.88L343.65 315.79L344.22 315.7L344.79 315.61L345.36 315.52L345.91 315.42L346.45 315.33L346.99 315.24L347.51 315.14L348.03 315.05L348.53 314.96L349.02 314.86L349.5 314.77L349.97 314.67L350.42 314.58L350.86 314.49L351.29 314.39L351.7 314.3L352.09 314.21L352.48 314.12L352.84 314.02L353.19 313.93L353.53 313.84L353.84 313.75L354.14 313.66L354.42 313.58L354.68 313.49L354.92 313.4L355.15 313.32L355.35 313.23L501.75 162.52L502.06 162.18L502.36 161.84L502.64 161.48L502.9 161.12L503.15 160.74L503.39 160.36L503.6 159.98L503.8 159.58L503.99 159.18L504.16 158.77L504.31 158.36L504.45 157.95L504.57 157.53L504.67 157.1L504.76 156.68L504.83 156.25L504.89 155.81L504.93 155.38L504.95 154.95L504.96 154.51L504.95 154.08L504.93 153.64L504.89 153.21L504.83 152.78L504.76 152.35L504.67 151.92L504.57 151.5L504.45 151.08L504.31 150.66L504.16 150.25L503.99 149.84L503.81 149.44L503.61 149.05L503.39 148.66L503.16 148.28L502.91 147.91L502.64 147.54L502.36 147.19L502.07 146.84L501.75 146.5L501.44 146.19L501.11 145.89L500.77 145.61L500.42 145.35L500.06 145.1L499.69 144.87L499.32 144.65L498.94 144.45L498.55 144.27L498.15 144.1L497.75 143.95L497.34 143.81L496.93 143.69L496.52 143.59L496.1 143.5L495.68 143.43L495.25 143.37L494.83 143.33L494.4 143.31L493.97 143.3L493.54 143.31L493.12 143.33Z" id="b6zJ3LO"></path><path d="M616.55 320C616.55 481.36 484.35 612.36 321.52 612.36C158.68 612.36 26.48 481.36 26.48 320C26.48 158.64 158.68 27.64 321.52 27.64C484.35 27.64 616.55 158.64 616.55 320Z" id="by4fh9fT"></path></defs><g><g><g><use xlink:href="#b17t0em4nR" opacity="1" fill="#ffffff" fill-opacity="1"></use><g><use xlink:href="#b17t0em4nR" opacity="1" fill-opacity="0" stroke="#ffffff" stroke-width="1" stroke-opacity="1"></use></g></g><g><use xlink:href="#b6zJ3LO" opacity="1" fill="#ffffff" fill-opacity="1"></use><g><use xlink:href="#b6zJ3LO" opacity="1" fill-opacity="0" stroke="#ffffff" stroke-width="1" stroke-opacity="1"></use></g></g><g><g><use xlink:href="#by4fh9fT" opacity="1" fill-opacity="0" stroke="#ffffff" stroke-width="20" stroke-opacity="1"></use></g></g></g></g></svg>